<?xml version="1.0" encoding="utf-8"?>
<!-- Generator: Adobe Illustrator 17.1.0, SVG Export Plug-In . SVG Version: 6.00 Build 0)  -->
<!DOCTYPE svg PUBLIC "-//W3C//DTD SVG 1.1//EN" "http://www.w3.org/Graphics/SVG/1.1/DTD/svg11.dtd">
<svg version="1.1" id="Layer_1" xmlns="http://www.w3.org/2000/svg" xmlns:xlink="http://www.w3.org/1999/xlink" x="0px" y="0px"
	 viewBox="0 0 266.9 119.5" enable-background="new 0 0 266.9 119.5" xml:space="preserve">
<path fill="#FFFFFF" d="M145.7,18.2c0,0-0.7,14.7-0.8,24.2c1.6,0.2,3.2,0.4,4.8,0.5c17.2,0.3,25.4-9,25.4-16.8
	c0-7.8-12.5-16.2-27.9-16.2c-15.4,0-27.6,8.4-27.6,16.2c0,1.5,0.2,2.5,0.8,3.8c-5.3-2.4-6.7-3.1-11.2-6.7C104.9,5,143.8,3.4,146,3.4
	c0.9,0,1.9,0,2.8,0c21,0.1,38.4,10,38.4,22.8c0,5.8-4.5,10.1-9.3,14.4c0.6-0.1,1.2-0.3,1.9-0.4c19.3-5.5,32.5-17.4,42.5-29.4
	c4.6,3.3,6.4,4.7,10.2,7.6c-15.5,14.7-42.2,32-73.8,32c-4.5,0-8.9-0.2-13-0.6c-0.3,0-0.5,0-0.8-0.1c0.2,10.9,0.8,24.1,0.8,24.1h-9.8
	c0,0,0.7-14,0.8-25.2c-0.5-0.1-1-0.2-1.5-0.4C101.1,41.9,82,23,73.8,15.8L52.4,30.9c4,5,37,24,75.8,24.7c0,0.1,0,0.3,0,0.3
	c-11.7,0.8-56.3,4.3-93.6-25L78.1,0c0,0,20,31.3,57.1,40.7l1.5,0.3c-0.2-9.4-0.8-22.8-0.8-22.8H145.7z"/>
<path fill="#FFFFFF" d="M0,119.3h5.5v-9.4h8.3c7.4,0,11.3-3.8,11.3-7.2c0-2.6-1.7-4.6-3.9-5.7c-2.8-1.4-5.3-1.7-8.1-1.7H0V119.3z
	 M5.5,98.7h7.9c1.6,0,2.7,0.1,3.9,0.7c1.4,0.6,2.3,1.6,2.3,3.2c0,1.9-2,3.9-6,3.9H5.5V98.7z"/>
<path fill="#FFFFFF" d="M36,107.3c0-4.9,0.4-5.6,1.8-6.8c1.1-0.9,3-1.8,5.6-1.8c2.6,0,4.5,0.8,5.6,1.8c1.4,1.2,1.8,1.9,1.8,6.8
	c0,4.9-0.4,5.6-1.8,6.8c-1.1,1-3,1.8-5.6,1.8c-2.6,0-4.5-0.8-5.6-1.8C36.4,112.9,36,112.2,36,107.3 M30.6,107.3
	c0,5.8,0.4,6.5,1.6,7.9c1.7,2.1,5.6,4.3,11.3,4.3c5.7,0,9.6-2.2,11.3-4.3c1.2-1.4,1.6-2.1,1.6-7.9c0-5.8-0.4-6.5-1.6-7.9
	c-1.7-2.1-5.6-4.3-11.3-4.3c-5.7,0-9.6,2.2-11.3,4.3C31,100.8,30.6,101.5,30.6,107.3 M39.5,94.1h4.2l7.2-4.9h-6.8L39.5,94.1z"/>
<path fill="#FFFFFF" d="M61.3,116.2c3.8,2.2,8.4,3.3,13.8,3.3c7.8,0,12.7-2.6,12.7-7c0-3.3-3.1-6.4-9.9-6.9c-1.7-0.1-3.1-0.3-4-0.4
	c-3.6-0.4-5.1-1.7-5.1-3.1c0-2.3,2.7-3.4,6-3.4c3.2,0,6.3,0.7,8.9,1.9l3-3c-3.3-1.4-7.2-2.5-11.7-2.5c-7.4,0-11.7,2.9-11.7,7
	c0,3.5,3.3,6.2,9.6,6.8c1.9,0.2,3.1,0.3,4.8,0.4c3.2,0.3,4.7,1.6,4.7,3.2c0,2-2.7,3.3-7.1,3.3c-3.8,0-7.5-0.9-10.2-2.4L61.3,116.2z"
	/>
<polygon fill="#FFFFFF" points="101.4,119.3 106.8,119.3 106.8,98.5 116.7,98.5 116.7,95.3 91.5,95.3 91.5,98.5 101.4,98.5 "/>
<path fill="#FFFFFF" d="M121.7,111.2c0,5,5.7,8.3,12.8,8.3c7.1,0,12.8-3.3,12.8-8.3V95.3h-5.5v15.5c0,3.3-3.2,5.1-7.3,5.1
	c-4.1,0-7.3-1.8-7.3-5.1V95.3h-5.5V111.2z"/>
<path fill="#FFFFFF" d="M156,119.3h5.5V109h7l7.4,10.3h6.5l-8.4-10.7c4.4-1,7-3.5,7-6.6c0-2.2-1.6-4-3.6-5.1
	c-1.9-1.1-4.3-1.6-7.3-1.6H156V119.3z M161.5,98.5h8.6c1.9,0,3,0.2,4,0.7c1.1,0.5,1.8,1.5,1.8,2.7c0,2-2,3.8-6.1,3.8h-8.3V98.5z"/>
<rect x="188.7" y="95.3" fill="#FFFFFF" width="5.5" height="24"/>
<polygon fill="#FFFFFF" points="203.5,119.3 209,119.3 209,102.2 209.1,102.2 225.4,119.3 230.5,119.3 230.5,95.3 225.1,95.3 
	225.1,112.3 224.9,112.3 208.7,95.3 203.5,95.3 "/>
<polygon fill="#FFFFFF" points="239.9,119.3 245.3,119.3 245.3,102.2 245.4,102.2 261.7,119.3 266.9,119.3 266.9,95.3 261.4,95.3 
	261.4,112.3 261.3,112.3 245,95.3 239.9,95.3 "/>
</svg>
